<svg width="68" height="24" viewBox="0 0 68 24" fill="none" xmlns="http://www.w3.org/2000/svg">
<g clip-path="url(#clip0_594_9670)">
<path d="M5.62406 3.23077L0 12.9231L2.55639 20.7692L53.1729 24L68 12.9231L47.0376 0L5.62406 3.23077Z" fill="#D8E970"/>
<path d="M15.1768 16L12.2635 5.81818H14.6151L16.3004 12.8928H16.3849L18.2443 5.81818H20.2578L22.1122 12.9077H22.2017L23.8871 5.81818H26.2386L23.3253 16H21.2273L19.2884 9.34304H19.2088L17.2749 16H15.1768ZM28.7083 16.1442C28.2211 16.1442 27.7869 16.0597 27.4057 15.8906C27.0246 15.7183 26.723 15.4647 26.5009 15.13C26.2821 14.7919 26.1728 14.371 26.1728 13.8672C26.1728 13.4429 26.2507 13.0866 26.4064 12.7983C26.5622 12.5099 26.7743 12.2779 27.0428 12.1023C27.3113 11.9266 27.6162 11.794 27.9576 11.7045C28.3023 11.6151 28.6635 11.5521 29.0414 11.5156C29.4855 11.4692 29.8435 11.4261 30.1152 11.3864C30.387 11.3433 30.5842 11.2803 30.7069 11.1974C30.8295 11.1146 30.8908 10.992 30.8908 10.8295V10.7997C30.8908 10.4848 30.7914 10.2412 30.5925 10.0689C30.397 9.89654 30.1185 9.81037 29.7573 9.81037C29.3761 9.81037 29.0729 9.89489 28.8475 10.0639C28.6221 10.2296 28.473 10.4384 28.4 10.6903L26.4412 10.5312C26.5407 10.0672 26.7362 9.66619 27.0279 9.32812C27.3195 8.98674 27.6957 8.7249 28.1564 8.54261C28.6204 8.35701 29.1574 8.2642 29.7672 8.2642C30.1915 8.2642 30.5975 8.31392 30.9853 8.41335C31.3764 8.51278 31.7227 8.6669 32.0243 8.87571C32.3292 9.08452 32.5695 9.35298 32.7452 9.68111C32.9209 10.0059 33.0087 10.3954 33.0087 10.8494V16H31.0002V14.9411H30.9405C30.8179 15.1797 30.6538 15.3902 30.4483 15.5724C30.2428 15.7514 29.9959 15.8923 29.7076 15.995C29.4192 16.0945 29.0861 16.1442 28.7083 16.1442ZM29.3148 14.6825C29.6264 14.6825 29.9015 14.6212 30.1401 14.4986C30.3787 14.3726 30.566 14.2036 30.7019 13.9915C30.8378 13.7794 30.9057 13.5391 30.9057 13.2706V12.4602C30.8394 12.5033 30.7483 12.5431 30.6323 12.5795C30.5196 12.6127 30.392 12.6442 30.2495 12.674C30.1069 12.7005 29.9644 12.7254 29.8219 12.7486C29.6794 12.7685 29.5501 12.7867 29.4341 12.8033C29.1855 12.8397 28.9685 12.8977 28.7828 12.9773C28.5972 13.0568 28.4531 13.1645 28.3503 13.3004C28.2476 13.433 28.1962 13.5987 28.1962 13.7976C28.1962 14.0859 28.3006 14.3063 28.5094 14.4588C28.7215 14.608 28.99 14.6825 29.3148 14.6825ZM36.7697 5.81818V16H34.6518V5.81818H36.7697ZM40.5842 5.81818V16H38.4663V5.81818H40.5842ZM45.7608 16.1491C44.9753 16.1491 44.2992 15.9901 43.7324 15.6719C43.169 15.3504 42.7348 14.8963 42.4299 14.3097C42.1249 13.7197 41.9725 13.022 41.9725 12.2166C41.9725 11.4311 42.1249 10.7417 42.4299 10.1484C42.7348 9.55516 43.164 9.0928 43.7175 8.76136C44.2743 8.42992 44.9273 8.2642 45.6763 8.2642C46.1801 8.2642 46.6491 8.34541 47.0833 8.50781C47.5208 8.6669 47.9019 8.9072 48.2267 9.22869C48.5549 9.55019 48.8101 9.95455 48.9924 10.4418C49.1747 10.9257 49.2658 11.4924 49.2658 12.142V12.7237H42.8176V11.4112H47.2722C47.2722 11.1063 47.2059 10.8362 47.0733 10.6009C46.9408 10.3655 46.7568 10.1816 46.5215 10.049C46.2895 9.91312 46.0194 9.84517 45.7111 9.84517C45.3896 9.84517 45.1046 9.91974 44.856 10.0689C44.6107 10.2147 44.4185 10.4119 44.2793 10.6605C44.1401 10.9058 44.0688 11.1792 44.0655 11.4808V12.7287C44.0655 13.1065 44.1351 13.433 44.2743 13.7081C44.4168 13.9832 44.6174 14.1953 44.8759 14.3445C45.1344 14.4936 45.441 14.5682 45.7956 14.5682C46.031 14.5682 46.2464 14.535 46.4419 14.4688C46.6375 14.4025 46.8049 14.303 46.9441 14.1705C47.0833 14.0379 47.1893 13.8755 47.2623 13.6832L49.2211 13.8125C49.1216 14.2831 48.9178 14.6941 48.6096 15.0455C48.3046 15.3935 47.9102 15.6652 47.4263 15.8608C46.9457 16.053 46.3906 16.1491 45.7608 16.1491ZM54.7097 8.36364V9.95455H50.111V8.36364H54.7097ZM51.155 6.53409H53.2729V13.6534C53.2729 13.849 53.3027 14.0014 53.3624 14.1108C53.4221 14.2169 53.5049 14.2914 53.611 14.3345C53.7203 14.3776 53.8463 14.3991 53.9888 14.3991C54.0882 14.3991 54.1877 14.3909 54.2871 14.3743C54.3865 14.3544 54.4628 14.3395 54.5158 14.3295L54.8489 15.9055C54.7428 15.9387 54.5937 15.9768 54.4015 16.0199C54.2092 16.0663 53.9756 16.0945 53.7005 16.1044C53.19 16.1243 52.7426 16.0563 52.3581 15.9006C51.977 15.7448 51.6803 15.5028 51.4682 15.1747C51.2561 14.8466 51.1517 14.4323 51.155 13.9318V6.53409Z" fill="black"/>
</g>
<defs>
<clipPath id="clip0_594_9670">
<rect width="68" height="24" fill="white"/>
</clipPath>
</defs>
</svg>
