<svg width="78" height="24" viewBox="0 0 78 24" fill="none" xmlns="http://www.w3.org/2000/svg">
<g clip-path="url(#clip0_594_9331)">
<path d="M10.2883 0L0 16.4093L13.638 24.375H75.6074L78 5.09804L10.2883 0Z" fill="#D499E6"/>
<path d="M20.6364 10.1094C20.5668 9.86742 20.469 9.65365 20.343 9.46804C20.2171 9.27912 20.063 9.12003 19.8807 8.99077C19.7017 8.85819 19.4962 8.7571 19.2642 8.6875C19.0355 8.6179 18.782 8.5831 18.5036 8.5831C17.9832 8.5831 17.5258 8.71236 17.1314 8.97088C16.7403 9.2294 16.4354 9.60559 16.2166 10.0994C15.9979 10.59 15.8885 11.1899 15.8885 11.8991C15.8885 12.6084 15.9962 13.2116 16.2116 13.7088C16.4271 14.206 16.732 14.5855 17.1264 14.8473C17.5208 15.1058 17.9865 15.2351 18.5234 15.2351C19.0107 15.2351 19.4266 15.1489 19.7713 14.9766C20.1193 14.8009 20.3845 14.554 20.5668 14.2358C20.7524 13.9176 20.8452 13.5414 20.8452 13.1072L21.2827 13.1719H18.6577V11.5511H22.9183V12.8338C22.9183 13.7287 22.7294 14.4976 22.3516 15.1406C21.9737 15.7803 21.4534 16.2741 20.7905 16.6222C20.1276 16.9669 19.3686 17.1392 18.5135 17.1392C17.5589 17.1392 16.7204 16.9287 15.9979 16.5078C15.2753 16.0836 14.7119 15.482 14.3075 14.7031C13.9065 13.9209 13.706 12.9929 13.706 11.919C13.706 11.0937 13.8253 10.358 14.0639 9.71165C14.3059 9.06203 14.6439 8.51184 15.0781 8.06108C15.5123 7.61032 16.0178 7.26728 16.5945 7.03196C17.1712 6.79664 17.7959 6.67898 18.4688 6.67898C19.0455 6.67898 19.5824 6.76349 20.0795 6.93253C20.5767 7.09825 21.0175 7.33357 21.402 7.63849C21.7898 7.94342 22.1063 8.30634 22.3516 8.72727C22.5968 9.14489 22.7543 9.60559 22.8239 10.1094H20.6364ZM26.6731 17.1442C26.1859 17.1442 25.7517 17.0597 25.3706 16.8906C24.9894 16.7183 24.6878 16.4647 24.4657 16.13C24.247 15.7919 24.1376 15.371 24.1376 14.8672C24.1376 14.4429 24.2155 14.0866 24.3713 13.7983C24.527 13.5099 24.7392 13.2779 25.0076 13.1023C25.2761 12.9266 25.581 12.794 25.9224 12.7045C26.2671 12.6151 26.6284 12.5521 27.0062 12.5156C27.4503 12.4692 27.8083 12.4261 28.0801 12.3864C28.3519 12.3433 28.5491 12.2803 28.6717 12.1974C28.7943 12.1146 28.8556 11.992 28.8556 11.8295V11.7997C28.8556 11.4848 28.7562 11.2412 28.5574 11.0689C28.3618 10.8965 28.0834 10.8104 27.7221 10.8104C27.341 10.8104 27.0377 10.8949 26.8123 11.0639C26.5869 11.2296 26.4378 11.4384 26.3649 11.6903L24.4061 11.5312C24.5055 11.0672 24.7011 10.6662 24.9927 10.3281C25.2844 9.98674 25.6606 9.7249 26.1213 9.54261C26.5853 9.35701 27.1222 9.2642 27.7321 9.2642C28.1563 9.2642 28.5623 9.31392 28.9501 9.41335C29.3412 9.51278 29.6876 9.6669 29.9892 9.87571C30.2941 10.0845 30.5344 10.353 30.71 10.6811C30.8857 11.0059 30.9735 11.3954 30.9735 11.8494V17H28.965V15.9411H28.9054C28.7827 16.1797 28.6187 16.3902 28.4132 16.5724C28.2077 16.7514 27.9608 16.8923 27.6724 16.995C27.3841 17.0945 27.051 17.1442 26.6731 17.1442ZM27.2797 15.6825C27.5912 15.6825 27.8663 15.6212 28.1049 15.4986C28.3436 15.3726 28.5308 15.2036 28.6667 14.9915C28.8026 14.7794 28.8706 14.5391 28.8706 14.2706V13.4602C28.8043 13.5033 28.7131 13.5431 28.5971 13.5795C28.4844 13.6127 28.3568 13.6442 28.2143 13.674C28.0718 13.7005 27.9293 13.7254 27.7868 13.7486C27.6442 13.7685 27.515 13.7867 27.399 13.8033C27.1504 13.8397 26.9333 13.8977 26.7477 13.9773C26.5621 14.0568 26.4179 14.1645 26.3152 14.3004C26.2124 14.433 26.161 14.5987 26.161 14.7976C26.161 15.0859 26.2654 15.3063 26.4743 15.4588C26.6864 15.608 26.9548 15.6825 27.2797 15.6825ZM32.6167 17V9.36364H34.6351V10.7109H34.7246C34.8837 10.2635 35.1489 9.91051 35.5201 9.65199C35.8913 9.39347 36.3354 9.2642 36.8525 9.2642C37.3761 9.2642 37.8219 9.39512 38.1898 9.65696C38.5577 9.91548 38.803 10.2668 38.9256 10.7109H39.0051C39.1609 10.2734 39.4426 9.92377 39.8503 9.66193C40.2613 9.39678 40.7469 9.2642 41.307 9.2642C42.0196 9.2642 42.598 9.49124 43.0421 9.94531C43.4895 10.3961 43.7132 11.0357 43.7132 11.8643V17H41.6003V12.282C41.6003 11.8577 41.4876 11.5395 41.2623 11.3274C41.0369 11.1153 40.7551 11.0092 40.4171 11.0092C40.0326 11.0092 39.7327 11.1319 39.5172 11.3771C39.3018 11.6191 39.1941 11.9389 39.1941 12.3366V17H37.1408V12.2372C37.1408 11.8627 37.0331 11.5644 36.8176 11.3423C36.6055 11.1203 36.3255 11.0092 35.9775 11.0092C35.7421 11.0092 35.53 11.0689 35.3411 11.1882C35.1555 11.3042 35.008 11.4683 34.8986 11.6804C34.7892 11.8892 34.7346 12.1345 34.7346 12.4162V17H32.6167ZM48.8663 17.1491C48.0808 17.1491 47.4047 16.9901 46.8379 16.6719C46.2744 16.3504 45.8403 15.8963 45.5353 15.3097C45.2304 14.7197 45.0779 14.022 45.0779 13.2166C45.0779 12.4311 45.2304 11.7417 45.5353 11.1484C45.8403 10.5552 46.2695 10.0928 46.823 9.76136C47.3798 9.42992 48.0327 9.2642 48.7818 9.2642C49.2856 9.2642 49.7546 9.34541 50.1887 9.50781C50.6262 9.6669 51.0074 9.9072 51.3322 10.2287C51.6603 10.5502 51.9155 10.9545 52.0978 11.4418C52.2801 11.9257 52.3713 12.4924 52.3713 13.142V13.7237H45.9231V12.4112H50.3777C50.3777 12.1063 50.3114 11.8362 50.1788 11.6009C50.0462 11.3655 49.8623 11.1816 49.627 11.049C49.3949 10.9131 49.1248 10.8452 48.8166 10.8452C48.4951 10.8452 48.21 10.9197 47.9615 11.0689C47.7162 11.2147 47.524 11.4119 47.3848 11.6605C47.2456 11.9058 47.1743 12.1792 47.171 12.4808V13.7287C47.171 14.1065 47.2406 14.433 47.3798 14.7081C47.5223 14.9832 47.7228 15.1953 47.9814 15.3445C48.2399 15.4936 48.5465 15.5682 48.9011 15.5682C49.1364 15.5682 49.3519 15.535 49.5474 15.4688C49.743 15.4025 49.9103 15.303 50.0495 15.1705C50.1887 15.0379 50.2948 14.8755 50.3677 14.6832L52.3265 14.8125C52.2271 15.2831 52.0233 15.6941 51.715 16.0455C51.4101 16.3935 51.0157 16.6652 50.5318 16.8608C50.0512 17.053 49.496 17.1491 48.8663 17.1491ZM53.7931 17V6.81818H60.5346V8.59304H55.9458V11.0192H60.0872V12.794H55.9458V17H53.7931ZM61.9428 17V9.36364H64.0607V17H61.9428ZM63.0067 8.37926C62.6919 8.37926 62.4218 8.27486 62.1964 8.06605C61.9743 7.85393 61.8633 7.60038 61.8633 7.3054C61.8633 7.01373 61.9743 6.76349 62.1964 6.55469C62.4218 6.34257 62.6919 6.23651 63.0067 6.23651C63.3216 6.23651 63.5901 6.34257 63.8121 6.55469C64.0375 6.76349 64.1502 7.01373 64.1502 7.3054C64.1502 7.60038 64.0375 7.85393 63.8121 8.06605C63.5901 8.27486 63.3216 8.37926 63.0067 8.37926Z" fill="black"/>
</g>
<defs>
<clipPath id="clip0_594_9331">
<rect width="78" height="24" fill="white"/>
</clipPath>
</defs>
</svg>
