<svg width="88" height="24" viewBox="0 0 88 24" fill="none" xmlns="http://www.w3.org/2000/svg">
<g clip-path="url(#clip0_594_9695)">
<path d="M3.9774 19.3846L0 11.5385L10.9379 0H50.5L88 6.92308L85.0169 19.3846L30.8249 24L3.9774 19.3846Z" fill="#EFE3C2"/>
<path d="M23.4084 8.74645C23.3686 8.34541 23.1979 8.03385 22.8963 7.81179C22.5947 7.58972 22.1854 7.47869 21.6683 7.47869C21.317 7.47869 21.0204 7.52841 20.7784 7.62784C20.5365 7.72396 20.3509 7.85819 20.2216 8.03054C20.0956 8.20289 20.0327 8.39844 20.0327 8.61719C20.026 8.79948 20.0642 8.95857 20.147 9.09446C20.2332 9.23035 20.3509 9.34801 20.5 9.44744C20.6491 9.54356 20.8215 9.62808 21.017 9.70099C21.2126 9.7706 21.4214 9.83026 21.6435 9.87997L22.5582 10.0987C23.0024 10.1982 23.41 10.3307 23.7812 10.4964C24.1525 10.6622 24.474 10.866 24.7457 11.108C25.0175 11.3499 25.228 11.6349 25.3771 11.9631C25.5296 12.2912 25.6075 12.6674 25.6108 13.0916C25.6075 13.7147 25.4484 14.255 25.1335 14.7124C24.822 15.1664 24.3712 15.5194 23.7812 15.7713C23.1946 16.0199 22.487 16.1442 21.6584 16.1442C20.8364 16.1442 20.1205 16.0182 19.5107 15.7663C18.9041 15.5144 18.4302 15.1416 18.0888 14.6477C17.7507 14.1506 17.5734 13.5357 17.5568 12.8033H19.6399C19.6631 13.1446 19.7609 13.4297 19.9332 13.6584C20.1089 13.8838 20.3426 14.0545 20.6342 14.1705C20.9292 14.2831 21.2623 14.3395 21.6335 14.3395C21.9981 14.3395 22.3146 14.2865 22.5831 14.1804C22.8549 14.0743 23.0653 13.9268 23.2145 13.7379C23.3636 13.549 23.4382 13.3319 23.4382 13.0866C23.4382 12.858 23.3703 12.6657 23.2344 12.5099C23.1018 12.3542 22.9063 12.2216 22.6477 12.1122C22.3925 12.0028 22.0793 11.9034 21.7081 11.8139L20.5994 11.5355C19.741 11.3267 19.0632 11.0002 18.5661 10.5561C18.0689 10.112 17.822 9.51373 17.8253 8.76136C17.822 8.14489 17.986 7.6063 18.3175 7.1456C18.6522 6.6849 19.1113 6.32528 19.6946 6.06676C20.2779 5.80824 20.9408 5.67898 21.6832 5.67898C22.4389 5.67898 23.0985 5.80824 23.6619 6.06676C24.2287 6.32528 24.6695 6.6849 24.9844 7.1456C25.2992 7.6063 25.4616 8.13991 25.4716 8.74645H23.4084ZM30.4693 16.1491C29.697 16.1491 29.0292 15.9851 28.4657 15.657C27.9056 15.3255 27.4731 14.8648 27.1681 14.2749C26.8632 13.6816 26.7108 12.9938 26.7108 12.2116C26.7108 11.4228 26.8632 10.7334 27.1681 10.1435C27.4731 9.55019 27.9056 9.08949 28.4657 8.76136C29.0292 8.42992 29.697 8.2642 30.4693 8.2642C31.2415 8.2642 31.9077 8.42992 32.4679 8.76136C33.0313 9.08949 33.4655 9.55019 33.7704 10.1435C34.0753 10.7334 34.2278 11.4228 34.2278 12.2116C34.2278 12.9938 34.0753 13.6816 33.7704 14.2749C33.4655 14.8648 33.0313 15.3255 32.4679 15.657C31.9077 15.9851 31.2415 16.1491 30.4693 16.1491ZM30.4792 14.5085C30.8306 14.5085 31.1239 14.4091 31.3592 14.2102C31.5945 14.008 31.7718 13.733 31.8912 13.3849C32.0138 13.0369 32.0751 12.6409 32.0751 12.1967C32.0751 11.7526 32.0138 11.3565 31.8912 11.0085C31.7718 10.6605 31.5945 10.3854 31.3592 10.1832C31.1239 9.98106 30.8306 9.87997 30.4792 9.87997C30.1246 9.87997 29.8263 9.98106 29.5843 10.1832C29.3457 10.3854 29.1651 10.6605 29.0424 11.0085C28.9231 11.3565 28.8635 11.7526 28.8635 12.1967C28.8635 12.6409 28.9231 13.0369 29.0424 13.3849C29.1651 13.733 29.3457 14.008 29.5843 14.2102C29.8263 14.4091 30.1246 14.5085 30.4792 14.5085ZM39.0552 16.1491C38.273 16.1491 37.6002 15.9834 37.0368 15.652C36.4766 15.3172 36.0458 14.8532 35.7441 14.2599C35.4458 13.6667 35.2967 12.9839 35.2967 12.2116C35.2967 11.4295 35.4475 10.7434 35.7491 10.1534C36.054 9.56013 36.4866 9.09777 37.0467 8.76633C37.6068 8.43158 38.273 8.2642 39.0453 8.2642C39.7115 8.2642 40.2948 8.38518 40.7953 8.62713C41.2958 8.86908 41.6918 9.20881 41.9835 9.64631C42.2752 10.0838 42.4359 10.5975 42.4657 11.1875H40.4672C40.4108 10.8063 40.2617 10.4998 40.0197 10.2678C39.7811 10.0324 39.4679 9.91477 39.0801 9.91477C38.752 9.91477 38.4653 10.0043 38.22 10.1832C37.978 10.3589 37.7891 10.6158 37.6532 10.9538C37.5173 11.2919 37.4494 11.7012 37.4494 12.1818C37.4494 12.669 37.5157 13.0833 37.6483 13.4247C37.7842 13.7661 37.9747 14.0263 38.22 14.2053C38.4653 14.3842 38.752 14.4737 39.0801 14.4737C39.322 14.4737 39.5391 14.424 39.7314 14.3246C39.9269 14.2251 40.0877 14.081 40.2136 13.892C40.3429 13.6998 40.4274 13.4695 40.4672 13.201H42.4657C42.4326 13.7843 42.2735 14.2981 41.9885 14.7422C41.7067 15.183 41.3173 15.5277 40.8201 15.7763C40.323 16.0249 39.7347 16.1491 39.0552 16.1491ZM43.8217 16V8.36364H45.9396V16H43.8217ZM44.8857 7.37926C44.5708 7.37926 44.3007 7.27486 44.0753 7.06605C43.8532 6.85393 43.7422 6.60038 43.7422 6.3054C43.7422 6.01373 43.8532 5.76349 44.0753 5.55469C44.3007 5.34257 44.5708 5.23651 44.8857 5.23651C45.2005 5.23651 45.469 5.34257 45.6911 5.55469C45.9164 5.76349 46.0291 6.01373 46.0291 6.3054C46.0291 6.60038 45.9164 6.85393 45.6911 7.06605C45.469 7.27486 45.2005 7.37926 44.8857 7.37926ZM49.8137 16.1442C49.3265 16.1442 48.8923 16.0597 48.5112 15.8906C48.13 15.7183 47.8284 15.4647 47.6064 15.13C47.3876 14.7919 47.2782 14.371 47.2782 13.8672C47.2782 13.4429 47.3561 13.0866 47.5119 12.7983C47.6677 12.5099 47.8798 12.2779 48.1483 12.1023C48.4167 11.9266 48.7217 11.794 49.063 11.7045C49.4077 11.6151 49.769 11.5521 50.1468 11.5156C50.591 11.4692 50.9489 11.4261 51.2207 11.3864C51.4925 11.3433 51.6897 11.2803 51.8123 11.1974C51.935 11.1146 51.9963 10.992 51.9963 10.8295V10.7997C51.9963 10.4848 51.8968 10.2412 51.698 10.0689C51.5024 9.89654 51.224 9.81037 50.8627 9.81037C50.4816 9.81037 50.1783 9.89489 49.9529 10.0639C49.7276 10.2296 49.5784 10.4384 49.5055 10.6903L47.5467 10.5312C47.6461 10.0672 47.8417 9.66619 48.1333 9.32812C48.425 8.98674 48.8012 8.7249 49.2619 8.54261C49.7259 8.35701 50.2628 8.2642 50.8727 8.2642C51.2969 8.2642 51.7029 8.31392 52.0907 8.41335C52.4818 8.51278 52.8282 8.6669 53.1298 8.87571C53.4347 9.08452 53.675 9.35298 53.8507 9.68111C54.0263 10.0059 54.1142 10.3954 54.1142 10.8494V16H52.1056V14.9411H52.046C51.9234 15.1797 51.7593 15.3902 51.5538 15.5724C51.3483 15.7514 51.1014 15.8923 50.813 15.995C50.5247 16.0945 50.1916 16.1442 49.8137 16.1442ZM50.4203 14.6825C50.7318 14.6825 51.0069 14.6212 51.2456 14.4986C51.4842 14.3726 51.6715 14.2036 51.8074 13.9915C51.9432 13.7794 52.0112 13.5391 52.0112 13.2706V12.4602C51.9449 12.5033 51.8538 12.5431 51.7377 12.5795C51.6251 12.6127 51.4975 12.6442 51.3549 12.674C51.2124 12.7005 51.0699 12.7254 50.9274 12.7486C50.7849 12.7685 50.6556 12.7867 50.5396 12.8033C50.291 12.8397 50.0739 12.8977 49.8883 12.9773C49.7027 13.0568 49.5585 13.1645 49.4558 13.3004C49.353 13.433 49.3017 13.5987 49.3017 13.7976C49.3017 14.0859 49.4061 14.3063 49.6149 14.4588C49.827 14.608 50.0955 14.6825 50.4203 14.6825ZM57.8752 5.81818V16H55.7573V5.81818H57.8752ZM59.6115 16V5.81818H66.353V7.59304H61.7642V10.0192H65.9055V11.794H61.7642V16H59.6115ZM67.7612 16V8.36364H69.8791V16H67.7612ZM68.8251 7.37926C68.5102 7.37926 68.2401 7.27486 68.0147 7.06605C67.7927 6.85393 67.6816 6.60038 67.6816 6.3054C67.6816 6.01373 67.7927 5.76349 68.0147 5.55469C68.2401 5.34257 68.5102 5.23651 68.8251 5.23651C69.14 5.23651 69.4084 5.34257 69.6305 5.55469C69.8559 5.76349 69.9686 6.01373 69.9686 6.3054C69.9686 6.60038 69.8559 6.85393 69.6305 7.06605C69.4084 7.27486 69.14 7.37926 68.8251 7.37926Z" fill="black"/>
</g>
<defs>
<clipPath id="clip0_594_9695">
<rect width="88" height="24" fill="white"/>
</clipPath>
</defs>
</svg>
