<svg width="75" height="24" viewBox="0 0 75 24" fill="none" xmlns="http://www.w3.org/2000/svg">
<g clip-path="url(#clip0_594_9328)">
<path d="M72.7679 0L75 17.5748L36.3839 24L4.01786 19.4646L0 2.64567L72.7679 0Z" fill="#5CD6AF"/>
<path d="M16.4084 8.74645C16.3686 8.34541 16.1979 8.03385 15.8963 7.81179C15.5947 7.58972 15.1854 7.47869 14.6683 7.47869C14.317 7.47869 14.0204 7.52841 13.7784 7.62784C13.5365 7.72396 13.3509 7.85819 13.2216 8.03054C13.0956 8.20289 13.0327 8.39844 13.0327 8.61719C13.026 8.79948 13.0642 8.95857 13.147 9.09446C13.2332 9.23035 13.3509 9.34801 13.5 9.44744C13.6491 9.54356 13.8215 9.62808 14.017 9.70099C14.2126 9.7706 14.4214 9.83026 14.6435 9.87997L15.5582 10.0987C16.0024 10.1982 16.41 10.3307 16.7812 10.4964C17.1525 10.6622 17.474 10.866 17.7457 11.108C18.0175 11.3499 18.228 11.6349 18.3771 11.9631C18.5296 12.2912 18.6075 12.6674 18.6108 13.0916C18.6075 13.7147 18.4484 14.255 18.1335 14.7124C17.822 15.1664 17.3712 15.5194 16.7812 15.7713C16.1946 16.0199 15.487 16.1442 14.6584 16.1442C13.8364 16.1442 13.1205 16.0182 12.5107 15.7663C11.9041 15.5144 11.4302 15.1416 11.0888 14.6477C10.7507 14.1506 10.5734 13.5357 10.5568 12.8033H12.6399C12.6631 13.1446 12.7609 13.4297 12.9332 13.6584C13.1089 13.8838 13.3426 14.0545 13.6342 14.1705C13.9292 14.2831 14.2623 14.3395 14.6335 14.3395C14.9981 14.3395 15.3146 14.2865 15.5831 14.1804C15.8549 14.0743 16.0653 13.9268 16.2145 13.7379C16.3636 13.549 16.4382 13.3319 16.4382 13.0866C16.4382 12.858 16.3703 12.6657 16.2344 12.5099C16.1018 12.3542 15.9063 12.2216 15.6477 12.1122C15.3925 12.0028 15.0793 11.9034 14.7081 11.8139L13.5994 11.5355C12.741 11.3267 12.0632 11.0002 11.5661 10.5561C11.0689 10.112 10.822 9.51373 10.8253 8.76136C10.822 8.14489 10.986 7.6063 11.3175 7.1456C11.6522 6.6849 12.1113 6.32528 12.6946 6.06676C13.2779 5.80824 13.9408 5.67898 14.6832 5.67898C15.4389 5.67898 16.0985 5.80824 16.6619 6.06676C17.2287 6.32528 17.6695 6.6849 17.9844 7.1456C18.2992 7.6063 18.4616 8.13991 18.4716 8.74645H16.4084ZM24.0808 8.36364V9.95455H19.4821V8.36364H24.0808ZM20.5261 6.53409H22.644V13.6534C22.644 13.849 22.6738 14.0014 22.7335 14.1108C22.7931 14.2169 22.876 14.2914 22.9821 14.3345C23.0914 14.3776 23.2174 14.3991 23.3599 14.3991C23.4593 14.3991 23.5588 14.3909 23.6582 14.3743C23.7576 14.3544 23.8339 14.3395 23.8869 14.3295L24.22 15.9055C24.1139 15.9387 23.9648 15.9768 23.7725 16.0199C23.5803 16.0663 23.3467 16.0945 23.0716 16.1044C22.5611 16.1243 22.1137 16.0563 21.7292 15.9006C21.3481 15.7448 21.0514 15.5028 20.8393 15.1747C20.6272 14.8466 20.5228 14.4323 20.5261 13.9318V6.53409ZM28.8287 16.1491C28.0564 16.1491 27.3886 15.9851 26.8251 15.657C26.265 15.3255 25.8324 14.8648 25.5275 14.2749C25.2226 13.6816 25.0701 12.9938 25.0701 12.2116C25.0701 11.4228 25.2226 10.7334 25.5275 10.1435C25.8324 9.55019 26.265 9.08949 26.8251 8.76136C27.3886 8.42992 28.0564 8.2642 28.8287 8.2642C29.6009 8.2642 30.2671 8.42992 30.8272 8.76136C31.3907 9.08949 31.8249 9.55019 32.1298 10.1435C32.4347 10.7334 32.5872 11.4228 32.5872 12.2116C32.5872 12.9938 32.4347 13.6816 32.1298 14.2749C31.8249 14.8648 31.3907 15.3255 30.8272 15.657C30.2671 15.9851 29.6009 16.1491 28.8287 16.1491ZM28.8386 14.5085C29.1899 14.5085 29.4833 14.4091 29.7186 14.2102C29.9539 14.008 30.1312 13.733 30.2505 13.3849C30.3732 13.0369 30.4345 12.6409 30.4345 12.1967C30.4345 11.7526 30.3732 11.3565 30.2505 11.0085C30.1312 10.6605 29.9539 10.3854 29.7186 10.1832C29.4833 9.98106 29.1899 9.87997 28.8386 9.87997C28.484 9.87997 28.1857 9.98106 27.9437 10.1832C27.7051 10.3854 27.5244 10.6605 27.4018 11.0085C27.2825 11.3565 27.2228 11.7526 27.2228 12.1967C27.2228 12.6409 27.2825 13.0369 27.4018 13.3849C27.5244 13.733 27.7051 14.008 27.9437 14.2102C28.1857 14.4091 28.484 14.5085 28.8386 14.5085ZM33.9643 16V8.36364H36.0176V9.69602H36.0971C36.2363 9.22206 36.47 8.86411 36.7981 8.62216C37.1262 8.37689 37.5041 8.25426 37.9316 8.25426C38.0377 8.25426 38.152 8.26089 38.2747 8.27415C38.3973 8.28741 38.505 8.30563 38.5978 8.32883V10.2081C38.4984 10.1783 38.3609 10.1518 38.1852 10.1286C38.0095 10.1054 37.8488 10.0938 37.7029 10.0938C37.3914 10.0938 37.113 10.1617 36.8677 10.2976C36.6258 10.4302 36.4335 10.6158 36.291 10.8544C36.1518 11.093 36.0822 11.3681 36.0822 11.6797V16H33.9643ZM41.6516 16.1442C41.1644 16.1442 40.7302 16.0597 40.3491 15.8906C39.9679 15.7183 39.6663 15.4647 39.4442 15.13C39.2255 14.7919 39.1161 14.371 39.1161 13.8672C39.1161 13.4429 39.194 13.0866 39.3498 12.7983C39.5056 12.5099 39.7177 12.2779 39.9862 12.1023C40.2546 11.9266 40.5595 11.794 40.9009 11.7045C41.2456 11.6151 41.6069 11.5521 41.9847 11.5156C42.4289 11.4692 42.7868 11.4261 43.0586 11.3864C43.3304 11.3433 43.5276 11.2803 43.6502 11.1974C43.7728 11.1146 43.8342 10.992 43.8342 10.8295V10.7997C43.8342 10.4848 43.7347 10.2412 43.5359 10.0689C43.3403 9.89654 43.0619 9.81037 42.7006 9.81037C42.3195 9.81037 42.0162 9.89489 41.7908 10.0639C41.5655 10.2296 41.4163 10.4384 41.3434 10.6903L39.3846 10.5312C39.484 10.0672 39.6796 9.66619 39.9712 9.32812C40.2629 8.98674 40.6391 8.7249 41.0998 8.54261C41.5638 8.35701 42.1007 8.2642 42.7106 8.2642C43.1348 8.2642 43.5408 8.31392 43.9286 8.41335C44.3197 8.51278 44.6661 8.6669 44.9677 8.87571C45.2726 9.08452 45.5129 9.35298 45.6886 9.68111C45.8642 10.0059 45.9521 10.3954 45.9521 10.8494V16H43.9435V14.9411H43.8839C43.7612 15.1797 43.5972 15.3902 43.3917 15.5724C43.1862 15.7514 42.9393 15.8923 42.6509 15.995C42.3626 16.0945 42.0295 16.1442 41.6516 16.1442ZM42.2582 14.6825C42.5697 14.6825 42.8448 14.6212 43.0835 14.4986C43.3221 14.3726 43.5094 14.2036 43.6452 13.9915C43.7811 13.7794 43.8491 13.5391 43.8491 13.2706V12.4602C43.7828 12.5033 43.6916 12.5431 43.5756 12.5795C43.463 12.6127 43.3353 12.6442 43.1928 12.674C43.0503 12.7005 42.9078 12.7254 42.7653 12.7486C42.6228 12.7685 42.4935 12.7867 42.3775 12.8033C42.1289 12.8397 41.9118 12.8977 41.7262 12.9773C41.5406 13.0568 41.3964 13.1645 41.2937 13.3004C41.1909 13.433 41.1396 13.5987 41.1396 13.7976C41.1396 14.0859 41.244 14.3063 41.4528 14.4588C41.6649 14.608 41.9334 14.6825 42.2582 14.6825ZM51.0355 19.0227C50.3494 19.0227 49.7611 18.9283 49.2706 18.7393C48.7834 18.5537 48.3956 18.3002 48.1072 17.9787C47.8189 17.6572 47.6316 17.2959 47.5455 16.8949L49.5043 16.6314C49.5639 16.7839 49.6584 16.9264 49.7876 17.0589C49.9169 17.1915 50.0876 17.2976 50.2997 17.3771C50.5152 17.46 50.777 17.5014 51.0852 17.5014C51.5459 17.5014 51.9254 17.3887 52.2237 17.1634C52.5253 16.9413 52.6761 16.5684 52.6761 16.0447V14.6477H52.5866C52.4938 14.8598 52.3546 15.0604 52.169 15.2493C51.9834 15.4382 51.7448 15.5923 51.4531 15.7116C51.1615 15.831 50.8134 15.8906 50.4091 15.8906C49.8357 15.8906 49.3137 15.758 48.843 15.4929C48.3757 15.2244 48.0028 14.8151 47.7244 14.2649C47.4493 13.7114 47.3118 13.0121 47.3118 12.1669C47.3118 11.3018 47.4527 10.5793 47.7344 9.99929C48.0161 9.41927 48.3906 8.98509 48.858 8.69673C49.3286 8.40838 49.844 8.2642 50.4041 8.2642C50.8317 8.2642 51.1896 8.33712 51.478 8.48295C51.7663 8.62547 51.9983 8.80445 52.174 9.01989C52.353 9.23201 52.4905 9.44081 52.5866 9.64631H52.6662V8.36364H54.7692V16.0746C54.7692 16.7242 54.6101 17.2678 54.2919 17.7053C53.9737 18.1428 53.5329 18.4709 52.9695 18.6896C52.4093 18.9117 51.7647 19.0227 51.0355 19.0227ZM51.0803 14.2997C51.4216 14.2997 51.71 14.2152 51.9453 14.0462C52.1839 13.8738 52.3662 13.6286 52.4922 13.3104C52.6214 12.9889 52.6861 12.6044 52.6861 12.157C52.6861 11.7095 52.6231 11.3217 52.4972 10.9936C52.3712 10.6622 52.1889 10.4053 51.9503 10.223C51.7116 10.0407 51.4216 9.94957 51.0803 9.94957C50.7322 9.94957 50.4389 10.044 50.2003 10.233C49.9616 10.4186 49.781 10.6771 49.6584 11.0085C49.5357 11.34 49.4744 11.7228 49.4744 12.157C49.4744 12.5978 49.5357 12.9789 49.6584 13.3004C49.7843 13.6186 49.965 13.8655 50.2003 14.0412C50.4389 14.2135 50.7322 14.2997 51.0803 14.2997ZM59.9347 16.1491C59.1491 16.1491 58.473 15.9901 57.9062 15.6719C57.3428 15.3504 56.9086 14.8963 56.6037 14.3097C56.2988 13.7197 56.1463 13.022 56.1463 12.2166C56.1463 11.4311 56.2988 10.7417 56.6037 10.1484C56.9086 9.55516 57.3378 9.0928 57.8913 8.76136C58.4482 8.42992 59.1011 8.2642 59.8501 8.2642C60.3539 8.2642 60.8229 8.34541 61.2571 8.50781C61.6946 8.6669 62.0758 8.9072 62.4006 9.22869C62.7287 9.55019 62.9839 9.95455 63.1662 10.4418C63.3485 10.9257 63.4396 11.4924 63.4396 12.142V12.7237H56.9915V11.4112H61.446C61.446 11.1063 61.3797 10.8362 61.2472 10.6009C61.1146 10.3655 60.9306 10.1816 60.6953 10.049C60.4633 9.91312 60.1932 9.84517 59.8849 9.84517C59.5634 9.84517 59.2784 9.91974 59.0298 10.0689C58.7846 10.2147 58.5923 10.4119 58.4531 10.6605C58.3139 10.9058 58.2427 11.1792 58.2393 11.4808V12.7287C58.2393 13.1065 58.3089 13.433 58.4482 13.7081C58.5907 13.9832 58.7912 14.1953 59.0497 14.3445C59.3082 14.4936 59.6148 14.5682 59.9695 14.5682C60.2048 14.5682 60.4202 14.535 60.6158 14.4688C60.8113 14.4025 60.9787 14.303 61.1179 14.1705C61.2571 14.0379 61.3632 13.8755 61.4361 13.6832L63.3949 13.8125C63.2955 14.2831 63.0916 14.6941 62.7834 15.0455C62.4785 15.3935 62.084 15.6652 61.6001 15.8608C61.1196 16.053 60.5644 16.1491 59.9347 16.1491Z" fill="black"/>
</g>
<defs>
<clipPath id="clip0_594_9328">
<rect width="75" height="24" fill="white"/>
</clipPath>
</defs>
</svg>
