<svg width="50" height="24" viewBox="0 0 50 24" fill="none" xmlns="http://www.w3.org/2000/svg">
<g clip-path="url(#clip0_594_9334)">
<path d="M2.59939 0L0 18.3439L3.97554 24L48.318 18.3439L50 4.43312L2.59939 0Z" fill="#91D65C"/>
<path d="M14.4943 17H10.8849V6.81818H14.5241C15.5483 6.81818 16.4299 7.02202 17.169 7.42969C17.9081 7.83404 18.4766 8.41572 18.8743 9.17472C19.2753 9.93371 19.4759 10.8419 19.4759 11.8991C19.4759 12.9598 19.2753 13.8712 18.8743 14.6335C18.4766 15.3958 17.9048 15.9808 17.1591 16.3885C16.4167 16.7962 15.5284 17 14.4943 17ZM13.0376 15.1555H14.4048C15.0412 15.1555 15.5765 15.0429 16.0107 14.8175C16.4482 14.5888 16.7763 14.2358 16.995 13.7585C17.2171 13.2779 17.3281 12.6581 17.3281 11.8991C17.3281 11.1468 17.2171 10.532 16.995 10.0547C16.7763 9.57741 16.4498 9.22609 16.0156 9.00071C15.5814 8.77533 15.0462 8.66264 14.4098 8.66264H13.0376V15.1555ZM22.2512 17H19.9444L23.4593 6.81818H26.2335L29.7434 17H27.4366L24.8862 9.14489H24.8066L22.2512 17ZM22.1071 12.9979H27.5559V14.6783H22.1071V12.9979ZM39.8469 11.9091C39.8469 13.0194 39.6365 13.964 39.2156 14.7429C38.7979 15.5218 38.2279 16.1167 37.5053 16.5277C36.7861 16.9354 35.9774 17.1392 35.0792 17.1392C34.1744 17.1392 33.3623 16.9337 32.6431 16.5227C31.9239 16.1117 31.3555 15.5168 30.9379 14.7379C30.5202 13.959 30.3114 13.0161 30.3114 11.9091C30.3114 10.7988 30.5202 9.85417 30.9379 9.07528C31.3555 8.2964 31.9239 7.70312 32.6431 7.29545C33.3623 6.88447 34.1744 6.67898 35.0792 6.67898C35.9774 6.67898 36.7861 6.88447 37.5053 7.29545C38.2279 7.70312 38.7979 8.2964 39.2156 9.07528C39.6365 9.85417 39.8469 10.7988 39.8469 11.9091ZM37.6644 11.9091C37.6644 11.1899 37.5567 10.5833 37.3413 10.0895C37.1291 9.59564 36.8292 9.22112 36.4414 8.96591C36.0536 8.7107 35.5996 8.5831 35.0792 8.5831C34.5588 8.5831 34.1048 8.7107 33.717 8.96591C33.3292 9.22112 33.0276 9.59564 32.8121 10.0895C32.6 10.5833 32.494 11.1899 32.494 11.9091C32.494 12.6283 32.6 13.2348 32.8121 13.7287C33.0276 14.2225 33.3292 14.5971 33.717 14.8523C34.1048 15.1075 34.5588 15.2351 35.0792 15.2351C35.5996 15.2351 36.0536 15.1075 36.4414 14.8523C36.8292 14.5971 37.1291 14.2225 37.3413 13.7287C37.5567 13.2348 37.6644 12.6283 37.6644 11.9091Z" fill="black"/>
</g>
<defs>
<clipPath id="clip0_594_9334">
<rect width="50" height="24" fill="white"/>
</clipPath>
</defs>
</svg>
