<svg width="94" height="24" viewBox="0 0 94 24" fill="none" xmlns="http://www.w3.org/2000/svg">
<g clip-path="url(#clip0_594_9349)">
<path d="M3.08197 4.42105L0 24L87.0656 20.8421L94 10.7368L73.1967 0L3.08197 4.42105Z" fill="#C0B6F9"/>
<path d="M10.8849 17V6.81818H13.0376V15.2251H17.4027V17H10.8849ZM20.9661 17.1442C20.4789 17.1442 20.0447 17.0597 19.6635 16.8906C19.2824 16.7183 18.9808 16.4647 18.7587 16.13C18.54 15.7919 18.4306 15.371 18.4306 14.8672C18.4306 14.4429 18.5085 14.0866 18.6642 13.7983C18.82 13.5099 19.0321 13.2779 19.3006 13.1023C19.5691 12.9266 19.874 12.794 20.2154 12.7045C20.5601 12.6151 20.9213 12.5521 21.2992 12.5156C21.7433 12.4692 22.1013 12.4261 22.373 12.3864C22.6448 12.3433 22.842 12.2803 22.9647 12.1974C23.0873 12.1146 23.1486 11.992 23.1486 11.8295V11.7997C23.1486 11.4848 23.0492 11.2412 22.8503 11.0689C22.6548 10.8965 22.3764 10.8104 22.0151 10.8104C21.6339 10.8104 21.3307 10.8949 21.1053 11.0639C20.8799 11.2296 20.7308 11.4384 20.6578 11.6903L18.699 11.5312C18.7985 11.0672 18.994 10.6662 19.2857 10.3281C19.5774 9.98674 19.9535 9.7249 20.4142 9.54261C20.8783 9.35701 21.4152 9.2642 22.025 9.2642C22.4493 9.2642 22.8553 9.31392 23.2431 9.41335C23.6342 9.51278 23.9805 9.6669 24.2821 9.87571C24.5871 10.0845 24.8274 10.353 25.003 10.6811C25.1787 11.0059 25.2665 11.3954 25.2665 11.8494V17H23.258V15.9411H23.1983C23.0757 16.1797 22.9116 16.3902 22.7061 16.5724C22.5007 16.7514 22.2537 16.8923 21.9654 16.995C21.677 17.0945 21.3439 17.1442 20.9661 17.1442ZM21.5726 15.6825C21.8842 15.6825 22.1593 15.6212 22.3979 15.4986C22.6365 15.3726 22.8238 15.2036 22.9597 14.9915C23.0956 14.7794 23.1635 14.5391 23.1635 14.2706V13.4602C23.0972 13.5033 23.0061 13.5431 22.8901 13.5795C22.7774 13.6127 22.6498 13.6442 22.5073 13.674C22.3648 13.7005 22.2222 13.7254 22.0797 13.7486C21.9372 13.7685 21.8079 13.7867 21.6919 13.8033C21.4434 13.8397 21.2263 13.8977 21.0407 13.9773C20.8551 14.0568 20.7109 14.1645 20.6081 14.3004C20.5054 14.433 20.454 14.5987 20.454 14.7976C20.454 15.0859 20.5584 15.3063 20.7672 15.4588C20.9793 15.608 21.2478 15.6825 21.5726 15.6825ZM27.9437 19.8636C27.6752 19.8636 27.4234 19.8421 27.188 19.799C26.956 19.7592 26.7638 19.7079 26.6113 19.6449L27.0886 18.0639C27.3372 18.1402 27.5609 18.1816 27.7598 18.1882C27.9619 18.1948 28.1359 18.1484 28.2818 18.049C28.4309 17.9496 28.5519 17.7805 28.6447 17.5419L28.769 17.2188L26.0297 9.36364H28.2569L29.8379 14.9716H29.9174L31.5133 9.36364H33.7555L30.7875 17.8253C30.6449 18.2363 30.4511 18.5942 30.2058 18.8991C29.9638 19.2074 29.6573 19.4444 29.286 19.6101C28.9148 19.7791 28.4674 19.8636 27.9437 19.8636ZM38.0733 17.1491C37.2878 17.1491 36.6117 16.9901 36.0449 16.6719C35.4815 16.3504 35.0473 15.8963 34.7424 15.3097C34.4374 14.7197 34.285 14.022 34.285 13.2166C34.285 12.4311 34.4374 11.7417 34.7424 11.1484C35.0473 10.5552 35.4765 10.0928 36.03 9.76136C36.5868 9.42992 37.2398 9.2642 37.9888 9.2642C38.4926 9.2642 38.9616 9.34541 39.3958 9.50781C39.8333 9.6669 40.2144 9.9072 40.5392 10.2287C40.8674 10.5502 41.1226 10.9545 41.3049 11.4418C41.4872 11.9257 41.5783 12.4924 41.5783 13.142V13.7237H35.1301V12.4112H39.5847C39.5847 12.1063 39.5184 11.8362 39.3858 11.6009C39.2533 11.3655 39.0693 11.1816 38.834 11.049C38.602 10.9131 38.3319 10.8452 38.0236 10.8452C37.7021 10.8452 37.4171 10.9197 37.1685 11.0689C36.9232 11.2147 36.731 11.4119 36.5918 11.6605C36.4526 11.9058 36.3813 12.1792 36.378 12.4808V13.7287C36.378 14.1065 36.4476 14.433 36.5868 14.7081C36.7293 14.9832 36.9299 15.1953 37.1884 15.3445C37.4469 15.4936 37.7535 15.5682 38.1081 15.5682C38.3435 15.5682 38.5589 15.535 38.7544 15.4688C38.95 15.4025 39.1174 15.303 39.2566 15.1705C39.3958 15.0379 39.5018 14.8755 39.5748 14.6832L41.5336 14.8125C41.4341 15.2831 41.2303 15.6941 40.9221 16.0455C40.6171 16.3935 40.2227 16.6652 39.7388 16.8608C39.2582 17.053 38.7031 17.1491 38.0733 17.1491ZM42.9604 17V9.36364H45.0137V10.696H45.0932C45.2324 10.2221 45.4661 9.86411 45.7942 9.62216C46.1223 9.37689 46.5002 9.25426 46.9277 9.25426C47.0338 9.25426 47.1481 9.26089 47.2708 9.27415C47.3934 9.28741 47.5011 9.30563 47.5939 9.32883V11.2081C47.4945 11.1783 47.3569 11.1518 47.1813 11.1286C47.0056 11.1054 46.8449 11.0938 46.699 11.0938C46.3875 11.0938 46.1091 11.1617 45.8638 11.2976C45.6219 11.4302 45.4296 11.6158 45.2871 11.8544C45.1479 12.093 45.0783 12.3681 45.0783 12.6797V17H42.9604ZM56.339 6.81818V17H54.1863V8.86151H54.1266L51.7949 10.3232V8.41406L54.3155 6.81818H56.339ZM61.9009 17.1491C61.1983 17.1491 60.5917 17.0232 60.0813 16.7713C59.5709 16.5194 59.1781 16.178 58.9031 15.7472C58.6313 15.313 58.4954 14.8291 58.4954 14.2955C58.4954 13.8977 58.5749 13.5447 58.734 13.2365C58.8931 12.9283 59.1152 12.6449 59.4002 12.3864C59.6853 12.1245 60.0167 11.8643 60.3945 11.6058L62.3683 10.3082C62.6235 10.1458 62.8107 9.97514 62.93 9.79616C63.0494 9.61387 63.109 9.41667 63.109 9.20455C63.109 9.00237 63.0278 8.8151 62.8654 8.64276C62.703 8.47041 62.4727 8.38589 62.1744 8.3892C61.9755 8.3892 61.8031 8.43395 61.6573 8.52344C61.5115 8.60961 61.3971 8.72396 61.3143 8.86648C61.2347 9.00568 61.195 9.16146 61.195 9.33381C61.195 9.54593 61.2546 9.76136 61.3739 9.98011C61.4933 10.1989 61.6523 10.4309 61.8512 10.6761C62.0501 10.9181 62.2672 11.1799 62.5025 11.4616L67.3299 17H65.1225L61.0955 12.5156C60.8304 12.214 60.5652 11.8991 60.3001 11.571C60.0382 11.2396 59.8195 10.8883 59.6438 10.517C59.4682 10.1425 59.3803 9.73651 59.3803 9.29901C59.3803 8.80516 59.4947 8.36103 59.7234 7.96662C59.9554 7.57221 60.2802 7.26065 60.6978 7.03196C61.1154 6.79995 61.6026 6.68395 62.1594 6.68395C62.703 6.68395 63.172 6.79498 63.5664 7.01705C63.9641 7.2358 64.2691 7.52746 64.4812 7.89205C64.6966 8.25331 64.8043 8.65104 64.8043 9.08523C64.8043 9.56581 64.685 10.0017 64.4464 10.3928C64.2111 10.7805 63.8796 11.1286 63.4521 11.4368L61.3739 12.9332C61.0922 13.1387 60.8834 13.3492 60.7475 13.5646C60.6149 13.7768 60.5487 13.9806 60.5487 14.1761C60.5487 14.4181 60.6083 14.6352 60.7276 14.8274C60.8469 15.0196 61.016 15.1721 61.2347 15.2848C61.4535 15.3942 61.7103 15.4489 62.0053 15.4489C62.3633 15.4489 62.7163 15.3677 63.0643 15.2053C63.4156 15.0395 63.7338 14.8059 64.0188 14.5043C64.3072 14.1993 64.5375 13.8381 64.7099 13.4205C64.8822 13.0028 64.9684 12.5405 64.9684 12.0334H66.7234C66.7234 12.6565 66.6554 13.2183 66.5195 13.7188C66.3836 14.2159 66.1947 14.6501 65.9528 15.0213C65.7108 15.3892 65.4341 15.6908 65.1225 15.9261C65.0231 15.9891 64.927 16.0488 64.8342 16.1051C64.7414 16.1615 64.6452 16.2211 64.5458 16.2841C64.168 16.589 63.7454 16.8094 63.2781 16.9453C62.814 17.0812 62.355 17.1491 61.9009 17.1491ZM68.1925 17V15.4489L71.8168 12.093C72.125 11.7947 72.3835 11.5263 72.5923 11.2876C72.8045 11.049 72.9652 10.8153 73.0746 10.5866C73.1839 10.3546 73.2386 10.1044 73.2386 9.83594C73.2386 9.53764 73.1707 9.28078 73.0348 9.06534C72.8989 8.84659 72.7133 8.67921 72.478 8.56321C72.2427 8.44389 71.9759 8.38423 71.6776 8.38423C71.366 8.38423 71.0942 8.44721 70.8622 8.57315C70.6302 8.6991 70.4512 8.87973 70.3253 9.11506C70.1993 9.35038 70.1364 9.63044 70.1364 9.95526H68.093C68.093 9.28906 68.2438 8.7107 68.5455 8.22017C68.8471 7.72964 69.2696 7.35014 69.8132 7.08168C70.3568 6.81321 70.9832 6.67898 71.6925 6.67898C72.4216 6.67898 73.0563 6.80824 73.5966 7.06676C74.1402 7.32197 74.5627 7.67661 74.8643 8.13068C75.166 8.58475 75.3168 9.10511 75.3168 9.69176C75.3168 10.0762 75.2405 10.4557 75.0881 10.8303C74.9389 11.2048 74.6721 11.6207 74.2876 12.0781C73.9032 12.5322 73.3613 13.0774 72.6619 13.7138L71.1754 15.1705V15.2401H75.451V17H68.1925Z" fill="black"/>
</g>
<defs>
<clipPath id="clip0_594_9349">
<rect width="94" height="24" fill="white"/>
</clipPath>
</defs>
</svg>
