<svg width="55" height="24" viewBox="0 0 55 24" fill="none" xmlns="http://www.w3.org/2000/svg">
<g clip-path="url(#clip0_594_9415)">
<path d="M19.7083 0L0 7.24528L3.20833 19.9245L50.875 24L54.5 6.5L19.7083 0Z" fill="#EFC46F"/>
<path d="M16.4943 17H12.8849V6.81818H16.5241C17.5483 6.81818 18.4299 7.02202 19.169 7.42969C19.9081 7.83404 20.4766 8.41572 20.8743 9.17472C21.2753 9.93371 21.4759 10.8419 21.4759 11.8991C21.4759 12.9598 21.2753 13.8712 20.8743 14.6335C20.4766 15.3958 19.9048 15.9808 19.1591 16.3885C18.4167 16.7962 17.5284 17 16.4943 17ZM15.0376 15.1555H16.4048C17.0412 15.1555 17.5765 15.0429 18.0107 14.8175C18.4482 14.5888 18.7763 14.2358 18.995 13.7585C19.2171 13.2779 19.3281 12.6581 19.3281 11.8991C19.3281 11.1468 19.2171 10.532 18.995 10.0547C18.7763 9.57741 18.4498 9.22609 18.0156 9.00071C17.5814 8.77533 17.0462 8.66264 16.4098 8.66264H15.0376V15.1555ZM26.5108 17.1491C25.7253 17.1491 25.0492 16.9901 24.4824 16.6719C23.919 16.3504 23.4848 15.8963 23.1799 15.3097C22.8749 14.7197 22.7225 14.022 22.7225 13.2166C22.7225 12.4311 22.8749 11.7417 23.1799 11.1484C23.4848 10.5552 23.914 10.0928 24.4675 9.76136C25.0243 9.42992 25.6773 9.2642 26.4263 9.2642C26.9301 9.2642 27.3991 9.34541 27.8333 9.50781C28.2708 9.6669 28.6519 9.9072 28.9767 10.2287C29.3049 10.5502 29.5601 10.9545 29.7424 11.4418C29.9247 11.9257 30.0158 12.4924 30.0158 13.142V13.7237H23.5676V12.4112H28.0222C28.0222 12.1063 27.9559 11.8362 27.8233 11.6009C27.6908 11.3655 27.5068 11.1816 27.2715 11.049C27.0395 10.9131 26.7694 10.8452 26.4611 10.8452C26.1396 10.8452 25.8546 10.9197 25.606 11.0689C25.3607 11.2147 25.1685 11.4119 25.0293 11.6605C24.8901 11.9058 24.8188 12.1792 24.8155 12.4808V13.7287C24.8155 14.1065 24.8851 14.433 25.0243 14.7081C25.1668 14.9832 25.3674 15.1953 25.6259 15.3445C25.8844 15.4936 26.191 15.5682 26.5456 15.5682C26.781 15.5682 26.9964 15.535 27.1919 15.4688C27.3875 15.4025 27.5549 15.303 27.6941 15.1705C27.8333 15.0379 27.9393 14.8755 28.0123 14.6832L29.9711 14.8125C29.8716 15.2831 29.6678 15.6941 29.3596 16.0455C29.0546 16.3935 28.6602 16.6652 28.1763 16.8608C27.6957 17.053 27.1406 17.1491 26.5108 17.1491ZM31.4377 17V6.81818H38.1792V8.59304H33.5904V11.0192H37.7317V12.794H33.5904V17H31.4377ZM39.5874 17V9.36364H41.7053V17H39.5874ZM40.6513 8.37926C40.3364 8.37926 40.0663 8.27486 39.8409 8.06605C39.6188 7.85393 39.5078 7.60038 39.5078 7.3054C39.5078 7.01373 39.6188 6.76349 39.8409 6.55469C40.0663 6.34257 40.3364 6.23651 40.6513 6.23651C40.9661 6.23651 41.2346 6.34257 41.4567 6.55469C41.6821 6.76349 41.7947 7.01373 41.7947 7.3054C41.7947 7.60038 41.6821 7.85393 41.4567 8.06605C41.2346 8.27486 40.9661 8.37926 40.6513 8.37926Z" fill="black"/>
</g>
<defs>
<clipPath id="clip0_594_9415">
<rect width="55" height="24" fill="white"/>
</clipPath>
</defs>
</svg>
