<svg width="53" height="24" viewBox="0 0 53 24" fill="none" xmlns="http://www.w3.org/2000/svg">
<g clip-path="url(#clip0_594_9637)">
<path d="M13.6286 0L4.0381 4.8L0 18.72L19.6857 24L50.4762 18.72L53 4.8L13.6286 0Z" fill="#F183CC"/>
<path d="M16.4943 17H12.8849V6.81818H16.5241C17.5483 6.81818 18.4299 7.02202 19.169 7.42969C19.9081 7.83404 20.4766 8.41572 20.8743 9.17472C21.2753 9.93371 21.4759 10.8419 21.4759 11.8991C21.4759 12.9598 21.2753 13.8712 20.8743 14.6335C20.4766 15.3958 19.9048 15.9808 19.1591 16.3885C18.4167 16.7962 17.5284 17 16.4943 17ZM15.0376 15.1555H16.4048C17.0412 15.1555 17.5765 15.0429 18.0107 14.8175C18.4482 14.5888 18.7763 14.2358 18.995 13.7585C19.2171 13.2779 19.3281 12.6581 19.3281 11.8991C19.3281 11.1468 19.2171 10.532 18.995 10.0547C18.7763 9.57741 18.4498 9.22609 18.0156 9.00071C17.5814 8.77533 17.0462 8.66264 16.4098 8.66264H15.0376V15.1555ZM23.0705 17V6.81818H29.9313V8.59304H25.2232V11.0192H29.5783V12.794H25.2232V15.2251H29.9512V17H23.0705ZM33.6612 6.81818L35.7145 10.2884H35.794L37.8572 6.81818H40.2884L37.1811 11.9091L40.358 17H37.8821L35.794 13.5249H35.7145L33.6264 17H31.1605L34.3473 11.9091L31.2202 6.81818H33.6612Z" fill="black"/>
</g>
<defs>
<clipPath id="clip0_594_9637">
<rect width="53" height="24" fill="white"/>
</clipPath>
</defs>
</svg>
