<svg width="96" height="24" viewBox="0 0 96 24" fill="none" xmlns="http://www.w3.org/2000/svg">
<g clip-path="url(#clip0_594_9653)">
<path d="M9.5 0L0 11.6273L2 24L88 22.9565L96 14.7578L86 4.47205L9.5 0Z" fill="#F68D86"/>
<path d="M12.8849 5.81818H15.5398L18.3438 12.6591H18.4631L21.267 5.81818H23.9219V16H21.8338V9.37287H21.7493L19.1143 15.9503H17.6925L15.0575 9.34801H14.973V16H12.8849V5.81818ZM29.1358 16.1491C28.3503 16.1491 27.6742 15.9901 27.1074 15.6719C26.544 15.3504 26.1098 14.8963 25.8049 14.3097C25.4999 13.7197 25.3475 13.022 25.3475 12.2166C25.3475 11.4311 25.4999 10.7417 25.8049 10.1484C26.1098 9.55516 26.539 9.0928 27.0925 8.76136C27.6493 8.42992 28.3023 8.2642 29.0513 8.2642C29.5551 8.2642 30.0241 8.34541 30.4583 8.50781C30.8958 8.6669 31.2769 8.9072 31.6017 9.22869C31.9299 9.55019 32.1851 9.95455 32.3674 10.4418C32.5497 10.9257 32.6408 11.4924 32.6408 12.142V12.7237H26.1926V11.4112H30.6472C30.6472 11.1063 30.5809 10.8362 30.4483 10.6009C30.3158 10.3655 30.1318 10.1816 29.8965 10.049C29.6645 9.91312 29.3944 9.84517 29.0861 9.84517C28.7646 9.84517 28.4796 9.91974 28.231 10.0689C27.9857 10.2147 27.7935 10.4119 27.6543 10.6605C27.5151 10.9058 27.4438 11.1792 27.4405 11.4808V12.7287C27.4405 13.1065 27.5101 13.433 27.6493 13.7081C27.7918 13.9832 27.9924 14.1953 28.2509 14.3445C28.5094 14.4936 28.816 14.5682 29.1706 14.5682C29.406 14.5682 29.6214 14.535 29.8169 14.4688C30.0125 14.4025 30.1799 14.303 30.3191 14.1705C30.4583 14.0379 30.5643 13.8755 30.6373 13.6832L32.5961 13.8125C32.4966 14.2831 32.2928 14.6941 31.9846 15.0455C31.6796 15.3935 31.2852 15.6652 30.8013 15.8608C30.3207 16.053 29.7656 16.1491 29.1358 16.1491ZM38.0847 8.36364V9.95455H33.486V8.36364H38.0847ZM34.53 6.53409H36.6479V13.6534C36.6479 13.849 36.6777 14.0014 36.7374 14.1108C36.7971 14.2169 36.8799 14.2914 36.986 14.3345C37.0953 14.3776 37.2213 14.3991 37.3638 14.3991C37.4632 14.3991 37.5627 14.3909 37.6621 14.3743C37.7615 14.3544 37.8378 14.3395 37.8908 14.3295L38.2239 15.9055C38.1178 15.9387 37.9687 15.9768 37.7765 16.0199C37.5842 16.0663 37.3506 16.0945 37.0755 16.1044C36.565 16.1243 36.1176 16.0563 35.7331 15.9006C35.352 15.7448 35.0553 15.5028 34.8432 15.1747C34.6311 14.8466 34.5267 14.4323 34.53 13.9318V6.53409ZM41.6419 16.1442C41.1547 16.1442 40.7205 16.0597 40.3393 15.8906C39.9582 15.7183 39.6565 15.4647 39.4345 15.13C39.2157 14.7919 39.1064 14.371 39.1064 13.8672C39.1064 13.4429 39.1842 13.0866 39.34 12.7983C39.4958 12.5099 39.7079 12.2779 39.9764 12.1023C40.2449 11.9266 40.5498 11.794 40.8912 11.7045C41.2359 11.6151 41.5971 11.5521 41.975 11.5156C42.4191 11.4692 42.777 11.4261 43.0488 11.3864C43.3206 11.3433 43.5178 11.2803 43.6404 11.1974C43.7631 11.1146 43.8244 10.992 43.8244 10.8295V10.7997C43.8244 10.4848 43.725 10.2412 43.5261 10.0689C43.3306 9.89654 43.0521 9.81037 42.6909 9.81037C42.3097 9.81037 42.0065 9.89489 41.7811 10.0639C41.5557 10.2296 41.4065 10.4384 41.3336 10.6903L39.3748 10.5312C39.4743 10.0672 39.6698 9.66619 39.9615 9.32812C40.2531 8.98674 40.6293 8.7249 41.09 8.54261C41.554 8.35701 42.091 8.2642 42.7008 8.2642C43.1251 8.2642 43.5311 8.31392 43.9189 8.41335C44.31 8.51278 44.6563 8.6669 44.9579 8.87571C45.2628 9.08452 45.5031 9.35298 45.6788 9.68111C45.8545 10.0059 45.9423 10.3954 45.9423 10.8494V16H43.9338V14.9411H43.8741C43.7515 15.1797 43.5874 15.3902 43.3819 15.5724C43.1764 15.7514 42.9295 15.8923 42.6412 15.995C42.3528 16.0945 42.0197 16.1442 41.6419 16.1442ZM42.2484 14.6825C42.56 14.6825 42.835 14.6212 43.0737 14.4986C43.3123 14.3726 43.4996 14.2036 43.6355 13.9915C43.7714 13.7794 43.8393 13.5391 43.8393 13.2706V12.4602C43.773 12.5033 43.6819 12.5431 43.5659 12.5795C43.4532 12.6127 43.3256 12.6442 43.1831 12.674C43.0405 12.7005 42.898 12.7254 42.7555 12.7486C42.613 12.7685 42.4837 12.7867 42.3677 12.8033C42.1191 12.8397 41.902 12.8977 41.7164 12.9773C41.5308 13.0568 41.3867 13.1645 41.2839 13.3004C41.1812 13.433 41.1298 13.5987 41.1298 13.7976C41.1298 14.0859 41.2342 14.3063 41.443 14.4588C41.6551 14.608 41.9236 14.6825 42.2484 14.6825ZM54.4313 8.36364L51.7615 16H49.3752L46.7054 8.36364H48.9426L50.5286 13.8274H50.6081L52.1891 8.36364H54.4313ZM58.7491 16.1491C57.9636 16.1491 57.2875 15.9901 56.7207 15.6719C56.1573 15.3504 55.7231 14.8963 55.4181 14.3097C55.1132 13.7197 54.9608 13.022 54.9608 12.2166C54.9608 11.4311 55.1132 10.7417 55.4181 10.1484C55.7231 9.55516 56.1523 9.0928 56.7058 8.76136C57.2626 8.42992 57.9155 8.2642 58.6646 8.2642C59.1684 8.2642 59.6374 8.34541 60.0716 8.50781C60.5091 8.6669 60.8902 8.9072 61.215 9.22869C61.5431 9.55019 61.7984 9.95455 61.9806 10.4418C62.1629 10.9257 62.2541 11.4924 62.2541 12.142V12.7237H55.8059V11.4112H60.2605C60.2605 11.1063 60.1942 10.8362 60.0616 10.6009C59.929 10.3655 59.7451 10.1816 59.5098 10.049C59.2778 9.91312 59.0076 9.84517 58.6994 9.84517C58.3779 9.84517 58.0929 9.91974 57.8443 10.0689C57.599 10.2147 57.4068 10.4119 57.2676 10.6605C57.1284 10.9058 57.0571 11.1792 57.0538 11.4808V12.7287C57.0538 13.1065 57.1234 13.433 57.2626 13.7081C57.4051 13.9832 57.6056 14.1953 57.8642 14.3445C58.1227 14.4936 58.4293 14.5682 58.7839 14.5682C59.0192 14.5682 59.2347 14.535 59.4302 14.4688C59.6258 14.4025 59.7931 14.303 59.9324 14.1705C60.0716 14.0379 60.1776 13.8755 60.2505 13.6832L62.2093 13.8125C62.1099 14.2831 61.9061 14.6941 61.5978 15.0455C61.2929 15.3935 60.8985 15.6652 60.4146 15.8608C59.934 16.053 59.3788 16.1491 58.7491 16.1491ZM63.6362 16V8.36364H65.6895V9.69602H65.769C65.9082 9.22206 66.1419 8.86411 66.47 8.62216C66.7981 8.37689 67.176 8.25426 67.6035 8.25426C67.7096 8.25426 67.8239 8.26089 67.9466 8.27415C68.0692 8.28741 68.1769 8.30563 68.2697 8.32883V10.2081C68.1703 10.1783 68.0327 10.1518 67.8571 10.1286C67.6814 10.1054 67.5207 10.0938 67.3748 10.0938C67.0633 10.0938 66.7849 10.1617 66.5396 10.2976C66.2976 10.4302 66.1054 10.6158 65.9629 10.8544C65.8237 11.093 65.7541 11.3681 65.7541 11.6797V16H63.6362ZM75.7184 10.5412L73.7795 10.6605C73.7463 10.4948 73.6751 10.3456 73.5657 10.2131C73.4563 10.0772 73.3121 9.96946 73.1332 9.88991C72.9575 9.80705 72.747 9.76562 72.5018 9.76562C72.1737 9.76562 71.8969 9.83523 71.6715 9.97443C71.4461 10.1103 71.3335 10.2926 71.3335 10.5213C71.3335 10.7036 71.4064 10.8577 71.5522 10.9837C71.698 11.1096 71.9483 11.2107 72.3029 11.2869L73.685 11.5653C74.4274 11.7178 74.9809 11.9631 75.3455 12.3011C75.7101 12.6392 75.8924 13.0833 75.8924 13.6335C75.8924 14.134 75.7449 14.5732 75.4499 14.951C75.1583 15.3288 74.7572 15.6238 74.2468 15.8359C73.7397 16.0447 73.1547 16.1491 72.4918 16.1491C71.4809 16.1491 70.6755 15.9387 70.0756 15.5178C69.479 15.0935 69.1294 14.5168 69.0266 13.7876L71.1097 13.6783C71.1727 13.9865 71.3252 14.2218 71.5671 14.3842C71.8091 14.5433 72.119 14.6229 72.4968 14.6229C72.868 14.6229 73.1663 14.5516 73.3917 14.4091C73.6204 14.2633 73.7364 14.076 73.7397 13.8473C73.7364 13.6551 73.6552 13.4976 73.4961 13.375C73.337 13.2491 73.0917 13.1529 72.7603 13.0866L71.4379 12.8232C70.6921 12.674 70.137 12.4155 69.7724 12.0476C69.4111 11.6797 69.2305 11.2107 69.2305 10.6406C69.2305 10.1501 69.363 9.72751 69.6282 9.37287C69.8967 9.01823 70.2728 8.74479 70.7567 8.55256C71.244 8.36032 71.814 8.2642 72.467 8.2642C73.4315 8.2642 74.1905 8.46804 74.744 8.87571C75.3008 9.28338 75.6256 9.83854 75.7184 10.5412ZM80.7061 16.1491C79.9206 16.1491 79.2445 15.9901 78.6777 15.6719C78.1143 15.3504 77.6801 14.8963 77.3752 14.3097C77.0703 13.7197 76.9178 13.022 76.9178 12.2166C76.9178 11.4311 77.0703 10.7417 77.3752 10.1484C77.6801 9.55516 78.1093 9.0928 78.6628 8.76136C79.2196 8.42992 79.8726 8.2642 80.6216 8.2642C81.1254 8.2642 81.5944 8.34541 82.0286 8.50781C82.4661 8.6669 82.8472 8.9072 83.1721 9.22869C83.5002 9.55019 83.7554 9.95455 83.9377 10.4418C84.12 10.9257 84.2111 11.4924 84.2111 12.142V12.7237H77.763V11.4112H82.2175C82.2175 11.1063 82.1512 10.8362 82.0186 10.6009C81.8861 10.3655 81.7021 10.1816 81.4668 10.049C81.2348 9.91312 80.9647 9.84517 80.6564 9.84517C80.3349 9.84517 80.0499 9.91974 79.8013 10.0689C79.556 10.2147 79.3638 10.4119 79.2246 10.6605C79.0854 10.9058 79.0141 11.1792 79.0108 11.4808V12.7287C79.0108 13.1065 79.0804 13.433 79.2196 13.7081C79.3622 13.9832 79.5627 14.1953 79.8212 14.3445C80.0797 14.4936 80.3863 14.5682 80.7409 14.5682C80.9763 14.5682 81.1917 14.535 81.3873 14.4688C81.5828 14.4025 81.7502 14.303 81.8894 14.1705C82.0286 14.0379 82.1346 13.8755 82.2076 13.6832L84.1664 13.8125C84.0669 14.2831 83.8631 14.6941 83.5549 15.0455C83.2499 15.3935 82.8555 15.6652 82.3716 15.8608C81.891 16.053 81.3359 16.1491 80.7061 16.1491Z" fill="black"/>
</g>
<defs>
<clipPath id="clip0_594_9653">
<rect width="96" height="24" fill="white"/>
</clipPath>
</defs>
</svg>
